<svg width="512" height="512" viewBox="0 0 512 512" fill="none" xmlns="http://www.w3.org/2000/svg">
  <rect width="512" height="512" rx="128" fill="#059669"/>
  <circle cx="256" cy="256" r="160" fill="#10B981"/>
  <path d="M256 160C202.981 160 160 202.981 160 256C160 309.019 202.981 352 256 352C309.019 352 352 309.019 352 256C352 202.981 309.019 160 256 160ZM256 320C220.654 320 192 291.346 192 256C192 220.654 220.654 192 256 192C291.346 192 320 220.654 320 256C320 291.346 291.346 320 256 320Z" fill="white"/>
</svg>
